<?xml version="1.0" encoding="UTF-8"?>
<svg width="960px" height="960px" viewBox="0 0 960 960" version="1.1" xmlns="http://www.w3.org/2000/svg" xmlns:xlink="http://www.w3.org/1999/xlink">
    <title>smokealarm</title>
    <g id="smokealarm" stroke="none" fill="none" fill-rule="evenodd" stroke-width="1">
        <g id="FireAngel-ZST-630" transform="translate(14.25, 158)" fill="#000000">
            <path d="M465.5,0 C652.26925,0 815.077361,77.365229 859.278289,192.276703 C906.478308,236.641898 931.5,291.603839 931.5,350.0611 C931.5,368.754871 928.081514,387.557412 921.45126,406.125616 C901.905923,545.61709 703.030736,644 467.5,644 C241.351772,644 48.2143181,553.163538 16.485342,421.511021 C5.6647562,398.023816 0,373.982373 0,350.0611 C0,292.71323 24.5832446,238.64671 70.8114003,194.683545 C113.614426,78.503834 277.342314,0 465.5,0 Z M467,163 C237.249544,163 51,261.721213 51,383.5 C51,390.868747 51.6819292,398.153072 53.014162,405.336212 C53.2939427,405.93772 53.5763288,406.539388 53.8629439,407.140792 C75.8850888,516.652181 249.15888,602.204657 460.815099,603.972106 L467.235,603.999 L473.879321,603.970459 C700.456822,602.02327 883,504.060999 883,383.5 C883,261.721213 696.750456,163 467,163 Z M466.5,348 C587.174218,348 685,397.696393 685,459 C685,520.303607 587.174218,570 466.5,570 C438.443736,570 411.622529,567.313693 386.978651,562.419763 L384.341404,556.629551 C381.252139,549.846912 375.496619,544.642922 368.438102,542.250204 L355.960605,538.020544 C352.080658,536.705308 347.890394,536.613318 343.956465,537.757015 L324.56514,543.394583 C277.703236,523.035904 248,492.780125 248,459 C248,447.418179 251.491684,436.250653 257.969458,425.754269 C261.920176,419.352647 275.439975,414.433137 298.528845,410.995688 C300.587347,410.689077 302.240655,409.139412 302.679704,407.105038 C306.282161,390.391208 312.45825,380.054165 321.208269,376.093975 C359.819888,358.618658 410.718925,348 466.5,348 Z M356.75,551.25 L357.750586,551.641534 C359.29352,552.24529 360.054873,553.985526 359.451116,555.52846 C359.265236,556.003488 358.9613,556.423274 358.568032,556.748147 L356.75,558.25 C353.033187,561.32041 348.362791,563 343.541783,563 L319.5,563 C315.563917,563 312.013878,560.633308 310.5,557 L309.646544,554.951705 C309.009292,553.422301 309.732524,551.665879 311.261928,551.028628 C311.584263,550.894321 311.927571,550.817322 312.27639,550.801098 L344.832123,549.286878 C348.898489,549.097745 352.959133,549.766617 356.75,551.25 Z M704.876175,527.341635 C706.620492,529.482388 706.299117,532.631858 704.158365,534.376175 L690.658365,545.376175 C688.517612,547.120492 685.368142,546.799117 683.623825,544.658365 C681.879508,542.517612 682.200883,539.368142 684.341635,537.623825 L697.841635,526.623825 C699.982388,524.879508 703.131858,525.200883 704.876175,527.341635 Z M688.876175,524.341635 C690.620492,526.482388 690.299117,529.631858 688.158365,531.376175 L674.658365,542.376175 C672.517612,544.120492 669.368142,543.799117 667.623825,541.658365 C665.879508,539.517612 666.200883,536.368142 668.341635,534.623825 L681.841635,523.623825 C683.982388,521.879508 687.131858,522.200883 688.876175,524.341635 Z M672.876175,520.341635 C674.620492,522.482388 674.299117,525.631858 672.158365,527.376175 L658.658365,538.376175 C656.517612,540.120492 653.368142,539.799117 651.623825,537.658365 C649.879508,535.517612 650.200883,532.368142 652.341635,530.623825 L665.841635,519.623825 C667.982388,517.879508 671.131858,518.200883 672.876175,520.341635 Z M466.5,368 C414.910691,368 366.483803,377.555661 329.454821,394.314688 L329.378881,394.356473 C329.289564,394.412707 329.15782,394.516259 328.962966,394.702903 C328.444688,395.199345 327.840312,395.974166 327.182669,397.074877 C325.326382,400.181781 323.604995,404.943896 322.231098,411.318731 C320.033444,421.496933 311.767251,429.244486 301.473966,430.777656 L299.980046,431.004544 C290.381586,432.49164 282.970351,434.216928 277.911175,436.057838 C276.264043,436.657189 275.004901,437.219293 274.16451,437.684517 C270.016269,444.812366 268,451.908326 268,459 C268,481.08983 288.456445,504.326074 326.112347,522.116694 L335.346934,519.432489 C318.085488,506.476486 308,490.838252 308,474 C308,429.264935 379.186725,393 467,393 C554.813275,393 626,429.264935 626,474 C626,499.23474 603.348313,521.774277 567.838217,536.629581 C583.965422,532.028778 598.814519,526.327945 611.944493,519.657798 C646.629643,502.037425 665,479.973367 665,459 C665,438.026633 646.629643,415.962575 611.944493,398.342202 C574.194392,379.164805 522.23359,368 466.5,368 Z M467,413 C427.269294,413 390.307205,420.96431 363.648537,434.545141 C340.041375,446.571431 328,461.07451 328,474 C328,486.92549 340.041375,501.428569 363.648537,513.454859 C390.307205,527.03569 427.269294,535 467,535 C506.730706,535 543.692795,527.03569 570.351463,513.454859 C593.958625,501.428569 606,486.92549 606,474 C606,461.07451 593.958625,446.571431 570.351463,434.545141 C543.692795,420.96431 506.730706,413 467,413 Z M467,117 C328.634669,117 218.03501,143.848296 142.378825,191.599038 C92.929786,222.809023 60.5415429,261.878675 46.8863191,303.910269 C44.3345941,312.288139 42.4944108,320.776123 41.3618887,329.335778 L41.184,330.723 L42.5032572,327.484063 C87.834783,219.684909 261.721408,143 467,143 C665.179878,143 834.101373,214.472949 886.336756,316.414201 L887.865,319.475 L887.568916,318.074068 C877.280667,270.550918 844.008447,226.186761 789.824664,191.569503 C715.070575,143.810166 605.287878,117 467,117 Z M465.5,40 C307.02948,40 172.082073,99.025256 121.173178,181.6077 C124.604444,179.259953 128.113824,176.952038 131.704097,174.68602 C155.9189,159.402738 183.421895,146.198991 213.998617,135.233053 L214,132.083046 C214,124.724465 218.300995,118.045002 225,115 C226.011111,114.540404 227.108903,114.302612 228.219566,114.302612 C232.516581,114.302612 236,117.786031 236,122.083046 L235.998879,127.894303 C243.500596,125.571895 251.168416,123.374464 258.999576,121.304049 L259,119.39618 C259,110.743487 264.385948,103.005204 272.5,100 C273.613881,99.587452 274.792243,99.376247 275.980067,99.376247 C281.513923,99.376247 286,103.862324 286,109.39618 L286.000682,114.811419 C292.887853,113.313289 299.88821,111.906495 307.000114,110.592246 L307,109.286497 C307,99.57924 313.261519,90.980155 322.5,88 C323.676341,87.620535 324.904775,87.427303 326.140806,87.427303 C332.690458,87.427303 338,92.736845 338,99.286497 L337.998381,105.552396 C344.580115,104.622876 351.247651,103.767411 357.999847,102.986845 L358,100.130822 C358,88.284287 366.024689,77.942387 377.5,75 C378.767623,74.674968 380.071067,74.51052 381.379698,74.51052 C390.006553,74.51052 397,81.503968 397,90.130822 L397.000648,99.382225 C402.614753,98.988367 408.280935,98.64278 413.998622,98.345888 L414,86 C414,74.40202 423.40202,65 435,65 C446.59798,65 456,74.40202 456,86 L455.998284,97.056051 C459.646788,97.018716 463.31407,97 467,97 C469.342023,97 471.676312,97.007554 474.002835,97.022639 L474,86 C474,74.40202 483.40202,65 495,65 C506.59798,65 516,74.40202 516,86 L516.001671,98.147897 C521.720576,98.421536 527.387165,98.743715 533.000917,99.114023 L533,90.130822 C533,81.503968 539.993447,74.51052 548.620302,74.51052 C549.928933,74.51052 551.232377,74.674968 552.5,75 C563.975311,77.942387 572,88.284287 572,100.130822 L572.000855,102.550588 C578.754229,103.301488 585.421791,104.12723 592.002501,105.02699 L592,99.286497 C592,92.736845 597.309542,87.427303 603.859194,87.427303 C605.095225,87.427303 606.323659,87.620535 607.5,88 C616.738481,90.980155 623,99.57924 623,109.286497 L623.001142,109.925797 C630.114389,111.20761 637.114769,112.58212 644.000788,114.048143 L644,109.39618 C644,103.862324 648.486077,99.376247 654.019933,99.376247 C655.207757,99.376247 656.386119,99.587452 657.5,100 C665.614052,103.005204 671,110.743487 671,119.39618 L671.001154,120.415611 C678.83412,122.450296 686.502072,124.612514 694.002485,126.900261 L694,122.083046 C694,117.786031 697.483419,114.302612 701.780434,114.302612 C702.891097,114.302612 703.988889,114.540404 705,115 C711.699005,118.045002 716,124.724465 716,132.083046 L716.002534,134.139495 C747.575561,145.321814 775.844249,158.9043 800.592414,174.715556 C803.441341,176.535695 806.238259,178.382991 808.9828,180.256594 C757.440929,98.381299 623.103705,40 465.5,40 Z" id="Shape" fill-rule="nonzero"></path>
        </g>
    </g>
</svg>